<?xml version="1.0" encoding="utf-8"?>
<!-- Generator: Adobe Illustrator 16.0.0, SVG Export Plug-In . SVG Version: 6.00 Build 0)  -->
<!DOCTYPE svg PUBLIC "-//W3C//DTD SVG 1.1//EN" "http://www.w3.org/Graphics/SVG/1.1/DTD/svg11.dtd">
<svg version="1.1" id="Layer_1" xmlns="http://www.w3.org/2000/svg" xmlns:xlink="http://www.w3.org/1999/xlink" x="0px" y="0px"
	 width="60px" height="60px" viewBox="0 0 60 60" enable-background="new 0 0 60 60" xml:space="preserve">
<g id="Page_1">
	<g id="_x31_44_-_Retina_iPad_App_Icon">
		<path id="Shape_copy" fill="#252F39" d="M60,31.804v0.239l-0.003,1.682v0.24v1.685v0.236l-0.007,1.691v0.226l-0.01,1.709
			l-0.003,0.199l-0.029,1.754l-0.059,1.981l-0.013,0.259l-0.088,1.588l-0.014,0.19l-0.143,1.574l-0.029,0.244l-0.036,0.311
			l-0.163,1.138l-0.084,0.476l-0.141,0.696l-0.098,0.432l-0.208,0.796l-0.222,0.7l-0.309,0.828l-0.17,0.393l-0.225,0.474
			l-0.521,0.928l-0.358,0.522l-0.459,0.586l-0.589,0.628l-0.368,0.339l-0.452,0.369l-0.647,0.457l-0.459,0.28l-0.778,0.41
			l-0.664,0.291l-0.485,0.188l-0.221,0.078l-0.684,0.218l-0.805,0.219l-0.221,0.052l-0.346,0.078l-1.031,0.198l-0.551,0.085
			l-0.732,0.101l-0.41,0.049l-0.784,0.082l-0.94,0.078l-0.986,0.062l-0.883,0.042l-1.045,0.039l-0.82,0.021l-0.296,0.008
			l-0.811,0.014l-0.788,0.013l-0.357,0.003l-0.784,0.005L37.9,59.99h-0.383l-0.771,0.005l-0.767,0.002h-0.394h-0.767h-0.766h-0.396
			h-0.766L32.127,60h-0.397l-0.767-0.003L30.198,60h-0.397l-0.765-0.003L28.27,60h-0.397l-0.765-0.003h-0.765h-0.397h-0.765h-0.767
			H24.02l-0.767-0.002l-0.771-0.005H22.1l-0.773-0.005l-0.784-0.005l-0.356-0.003l-0.787-0.013l-0.813-0.014l-0.294-0.008
			l-0.821-0.021l-0.872-0.03l-1.056-0.051l-0.945-0.061l-0.982-0.079l-0.784-0.082l-0.408-0.049l-0.734-0.101l-0.549-0.085
			l-1.03-0.198l-0.348-0.078l-0.219-0.052l-0.805-0.219L8.052,58.62l-0.221-0.078l-0.484-0.188l-0.664-0.291l-0.778-0.41
			l-0.458-0.28l-0.648-0.457l-0.451-0.369l-0.371-0.339L3.39,55.58l-0.461-0.586l-0.356-0.522l-0.523-0.928l-0.154-0.317
			l-0.238-0.549L1.346,51.85l-0.219-0.7l-0.209-0.796l-0.099-0.432l-0.14-0.696L0.597,48.75l-0.165-1.138l-0.036-0.311l-0.029-0.244
			l-0.142-1.574l-0.014-0.19l-0.089-1.588L0.11,43.467l-0.059-1.861l-0.029-1.895L0.02,39.512l-0.012-1.709v-0.226l-0.007-1.691
			v-0.236v-1.685v-0.24L0,32.043v-0.239V30.12v-0.241v-1.683v-0.24l0.001-1.681v-0.24V24.35v-0.236l0.007-1.69v-0.228l0.012-1.708
			l0.003-0.199l0.027-1.753l0.061-1.981l0.012-0.259l0.089-1.588l0.014-0.191l0.142-1.575l0.029-0.244l0.036-0.31l0.165-1.139
			l0.083-0.476l0.14-0.694l0.099-0.433L1.127,8.85L1.346,8.15l0.311-0.829l0.168-0.393l0.225-0.473l0.523-0.928l0.356-0.523
			L3.39,4.42l0.586-0.628l0.371-0.34l0.451-0.369l0.648-0.456l0.458-0.282l0.778-0.408l0.664-0.292l0.484-0.187l0.221-0.079
			L8.737,1.16l0.805-0.217l0.219-0.053l0.348-0.077l1.03-0.2l0.549-0.085l0.734-0.101l0.408-0.049l0.784-0.081l0.942-0.077
			l0.985-0.062l0.882-0.042l1.046-0.039l0.821-0.021l0.294-0.007l0.813-0.014l0.787-0.013l0.356-0.003l0.784-0.006L22.1,0.008h0.382
			l0.771-0.004l0.767-0.003h0.395h0.767h0.765h0.397h0.765L27.872,0h0.397l0.767,0.001L29.801,0h0.397l0.765,0.001L31.729,0h0.397
			l0.765,0.001h0.766h0.396h0.766h0.767h0.394l0.767,0.003l0.771,0.004H37.9l0.772,0.006l0.784,0.006l0.357,0.003l0.788,0.013
			l0.811,0.014l0.296,0.007l0.82,0.021l0.873,0.031l1.055,0.05l0.947,0.061l0.979,0.079l0.784,0.081l0.41,0.049l0.732,0.101
			l0.551,0.085l1.031,0.2l0.346,0.077l0.221,0.053l0.805,0.217l0.684,0.219l0.221,0.079l0.485,0.187l0.664,0.292l0.778,0.408
			l0.459,0.282l0.647,0.456l0.452,0.369l0.368,0.34l0.589,0.628l0.459,0.585l0.358,0.523l0.521,0.928l0.156,0.317l0.238,0.548
			l0.309,0.829l0.222,0.699l0.208,0.796l0.098,0.433l0.141,0.694l0.084,0.476l0.163,1.139l0.036,0.31l0.029,0.244l0.143,1.575
			l0.014,0.191l0.088,1.588l0.013,0.237l0.059,1.862l0.029,1.894l0.003,0.199l0.01,1.708v0.228l0.007,1.69v0.236v1.686v0.24
			L60,27.956v0.24v1.683V31.804z"/>
	</g>
</g>
<g>
	<path fill="#E64C3C" d="M23.933,40.041c1.419,2.412,3.123,4.683,6.032,4.683c2.058,0,3.618-1.773,3.618-3.76
		c0-3.69-3.122-4.756-6.173-5.961c-7.025-2.768-12.986-7.239-12.986-15.683C14.424,9.458,20.74,3,30.461,3
		c5.392,0,12.417,3.193,14.12,10.36l-10.927,5.18c-1.207-2.625-2.839-3.193-3.761-3.193c-1.774,0-3.193,1.774-3.193,3.548
		c0,1.844,2.058,3.406,4.469,4.47v-0.071c1.774,0.71,5.322,2.271,6.884,3.264h-0.071c5.534,3.264,7.877,7.451,7.877,14.406
		C45.859,49.832,38.976,57,30.319,57h-0.567c-7.735,0-13.128-4.826-15.611-12.702L23.933,40.041z M15.702,45.008
		c1.915,6.032,7.167,10.643,14.05,10.643h0.567c7.876,0,14.192-6.527,14.192-14.687c0-6.388-2.129-10.219-7.167-13.27
		c-1.419-0.852-4.896-2.413-6.741-3.122c-2.768-1.207-5.25-3.265-5.25-5.677c0-2.484,2.057-4.896,4.541-4.896
		c1.349,0,2.979,0.497,4.399,2.838l8.657-4.186c-1.704-5.463-7.593-8.302-12.489-8.302c-8.87,0-14.689,5.89-14.689,14.972
		c0,7.947,5.251,11.779,12.063,14.405c3.69,1.42,7.096,2.482,7.096,7.238c0,2.696-2.13,5.107-4.967,5.107
		c-3.549,0-5.251-2.128-6.6-4.328L15.702,45.008z"/>
</g>
</svg>
